# Blender 4.0.2
# www.blender.org
mtllib spaceship.mtl
o Cube
v 0.235021 -0.160725 0.453560
v 0.235021 0.021223 0.453560
v 0.281101 -0.109000 -0.083521
v 0.281101 0.288032 -0.083521
v 0.235021 -0.160725 0.453560
v 0.235021 0.021223 0.453560
v 0.281101 -0.109000 -0.083521
v 0.281101 0.288032 -0.083521
v 0.000000 0.021223 0.453560
v 0.000000 -0.109000 -0.083521
v 0.000000 0.288032 -0.083521
v 0.000000 -0.160725 0.453560
v 0.392123 -0.123440 0.416276
v 0.392123 -0.016061 0.416276
v 0.560350 -0.027641 -0.017247
v 0.560350 0.206672 -0.017247
v 0.907177 -0.063358 0.063358
v 0.907177 0.063358 0.063358
v 0.907177 -0.063358 -0.063358
v 0.907177 0.063358 -0.063358
v 1.335869 0.165923 0.164801
v 1.335869 0.229034 0.164801
v 1.335869 0.165923 0.101690
v 1.335869 0.229034 0.101690
v 0.082984 -0.188288 0.626918
v 0.082984 -0.006340 0.626918
v 0.000000 -0.188288 0.626918
v 0.082984 -0.188288 0.626918
v 0.082984 -0.006340 0.626918
v 0.000000 -0.006340 0.626918
v 0.240086 -0.151003 0.589633
v 0.240086 -0.043625 0.589633
v 0.177878 -0.076886 -0.625832
v 0.177878 0.073188 -0.625832
v 0.000000 0.073188 -0.625832
v 0.177878 -0.076886 -0.625832
v 0.177878 0.073188 -0.625832
v 0.000000 -0.076886 -0.625832
v 0.283431 -0.046133 -0.600782
v 0.283431 0.042435 -0.600782
v 0.000000 -0.138488 -0.824596
v 0.000000 0.011585 -0.824596
v 0.000000 0.011585 -0.824596
v 0.000000 -0.138488 -0.824596
v 0.000000 0.011585 -0.824596
v 0.000000 -0.138488 -0.824596
v 0.032270 -0.107735 -0.799546
v 0.032270 -0.019168 -0.799546
v 1.448249 0.165923 0.164801
v 1.448249 0.229034 0.164801
v 1.448249 0.165923 0.101690
v 1.448249 0.229034 0.101690
v 1.554057 0.165923 0.164801
v 1.554057 0.229034 0.164801
v 1.554057 0.165923 0.101690
v 1.554057 0.229034 0.101690
v 1.342861 0.103062 0.002683
v 1.342861 0.291895 0.002683
v 1.659446 0.103062 0.002683
v 1.659446 0.291895 0.002683
v 1.442723 0.163998 -0.086504
v 1.442723 0.263953 -0.086504
v 1.610301 0.163998 -0.086504
v 1.610301 0.263953 -0.086504
v -0.235021 -0.160725 0.453560
v -0.235021 0.021223 0.453560
v -0.281101 -0.109000 -0.083521
v -0.281101 0.288032 -0.083521
v -0.235021 -0.160725 0.453560
v -0.235021 0.021223 0.453560
v -0.281101 -0.109000 -0.083521
v -0.281101 0.288032 -0.083521
v -0.392123 -0.123440 0.416276
v -0.392123 -0.016061 0.416276
v -0.560350 -0.027641 -0.017247
v -0.560350 0.206672 -0.017247
v -0.907177 -0.063358 0.063358
v -0.907177 0.063358 0.063358
v -0.907177 -0.063358 -0.063358
v -0.907177 0.063358 -0.063358
v -1.335869 0.165923 0.164801
v -1.335869 0.229034 0.164801
v -1.335869 0.165923 0.101690
v -1.335869 0.229034 0.101690
v -0.082984 -0.188288 0.626918
v -0.082984 -0.006340 0.626918
v -0.082984 -0.188288 0.626918
v -0.082984 -0.006340 0.626918
v -0.240086 -0.151003 0.589633
v -0.240086 -0.043625 0.589633
v -0.177878 -0.076886 -0.625832
v -0.177878 0.073188 -0.625832
v -0.177878 -0.076886 -0.625832
v -0.177878 0.073188 -0.625832
v -0.283431 -0.046133 -0.600782
v -0.283431 0.042435 -0.600782
v -0.032270 -0.107735 -0.799546
v -0.032270 -0.019168 -0.799546
v -1.448249 0.165923 0.164801
v -1.448249 0.229034 0.164801
v -1.448249 0.165923 0.101690
v -1.448249 0.229034 0.101690
v -1.554057 0.165923 0.164801
v -1.554057 0.229034 0.164801
v -1.554057 0.165923 0.101690
v -1.554057 0.229034 0.101690
v -1.342861 0.103062 0.002683
v -1.342861 0.291895 0.002683
v -1.659446 0.103062 0.002683
v -1.659446 0.291895 0.002683
v -1.442723 0.163998 -0.086504
v -1.442723 0.263953 -0.086504
v -1.610301 0.163998 -0.086504
v -1.610301 0.263953 -0.086504
vn -0.0000 -0.8956 -0.4449
vn -0.9963 -0.0000 -0.0855
vn -0.0000 0.9876 0.1570
vn -0.0000 -0.9297 0.3683
vn -0.0000 0.9954 0.0959
vn -0.1318 -0.0000 -0.9913
vn 0.2133 -0.9741 -0.0755
vn -0.7518 -0.0000 -0.6594
vn 0.1333 0.8595 0.4934
vn -0.9824 -0.0000 0.1870
vn 0.4716 -0.8818 -0.0000
vn -0.0460 -0.9715 -0.2325
vn 0.5652 -0.0000 0.8249
vn 0.3819 0.9242 -0.0000
vn -0.0000 1.0000 -0.0000
vn -0.2303 -0.0000 0.9731
vn -0.3605 0.9328 -0.0000
vn 0.3593 -0.0000 -0.9332
vn -0.0000 -0.0000 -1.0000
vn 0.2309 -0.0000 0.9730
vn 0.3006 0.8653 0.4012
vn 0.7518 -0.0000 0.6594
vn 0.2440 -0.9679 0.0601
vn -0.0000 -0.9876 -0.1570
vn 0.3428 0.8492 -0.4017
vn 0.9034 -0.0000 -0.4287
vn -0.0000 0.9983 0.0591
vn 0.3027 -0.9463 -0.1136
vn 0.6132 -0.0000 -0.7899
vn 0.2961 -0.9519 -0.0792
vn -0.7452 -0.0000 0.6669
vn 0.7046 0.1802 -0.6864
vn 0.6206 -0.0000 -0.7842
vn -0.0000 -1.0000 -0.0000
vn -0.0000 -0.0000 1.0000
vn 1.0000 -0.0000 -0.0000
vn -0.0000 0.8442 0.5360
vn -0.0000 0.9543 -0.2990
vn 0.6847 -0.0000 0.7288
vn -0.0000 -0.8442 0.5360
vn -0.6847 -0.0000 0.7288
vn -0.6661 -0.0000 -0.7459
vn -0.0000 -0.8257 -0.5641
vn 0.8758 -0.0000 -0.4826
vn 0.9963 -0.0000 -0.0855
vn 0.1318 -0.0000 -0.9913
vn -0.2133 -0.9741 -0.0755
vn 0.7518 -0.0000 -0.6594
vn -0.3054 0.8421 0.4445
vn 0.9824 -0.0000 0.1870
vn -0.4716 -0.8818 -0.0000
vn 0.0460 -0.9715 -0.2325
vn -0.5652 -0.0000 0.8249
vn -0.2234 0.8290 0.5126
vn 0.2303 -0.0000 0.9731
vn 0.3605 0.9328 -0.0000
vn -0.3593 -0.0000 -0.9332
vn -0.2309 -0.0000 0.9730
vn -0.3006 0.8653 0.4012
vn -0.7518 -0.0000 0.6594
vn -0.2440 -0.9679 0.0601
vn -0.0000 -0.9552 0.2960
vn -0.0000 0.9552 -0.2960
vn -0.3428 0.8492 -0.4017
vn -0.9034 -0.0000 -0.4287
vn -0.3027 -0.9463 -0.1136
vn -0.6132 -0.0000 -0.7899
vn -0.2961 -0.9519 -0.0792
vn 0.7452 -0.0000 0.6669
vn -0.3506 0.6727 -0.6515
vn -0.6206 -0.0000 -0.7842
vn -1.0000 -0.0000 -0.0000
vn 0.6661 -0.0000 -0.7459
vn -0.8758 -0.0000 -0.4826
vn 0.2990 -0.9496 -0.0938
vn 0.3054 0.8421 0.4445
vn -0.1024 -0.9947 -0.0000
vn 0.2234 0.8290 0.5126
vn 0.7528 -0.3226 -0.5737
vn 0.3506 0.6727 -0.6515
vn -0.6661 -0.0000 -0.7458
vn -0.2990 -0.9496 -0.0938
vn -0.1333 0.8595 0.4934
vn 0.1024 -0.9947 -0.0000
vn -0.3819 0.9242 -0.0000
vn -0.7528 -0.3226 -0.5737
vn -0.7046 0.1802 -0.6864
vt 0.240002 0.265000
vt 0.245000 0.255000
vt 0.240002 0.255000
vt 0.235000 0.255000
vt 0.245000 0.265000
vt 0.239998 0.255000
vt 0.239998 0.265000
vt 0.235000 0.265000
vt 0.245000 0.260002
vt 0.235000 0.260002
vt 0.245000 0.259998
vt 0.235000 0.259998
s 0
usemtl Material
f 11/1/1 2/2/1 9/3/1
f 2/4/2 3/5/2 1/2/2
f 12/6/3 25/4/3 1/4/3
f 6/4/2 7/5/2 5/2/2
f 11/1/4 34/5/4 4/5/4
f 1/4/5 10/7/5 12/6/5
f 15/5/6 20/8/6 19/5/6
f 7/5/7 13/2/7 5/2/7
f 5/2/8 29/4/8 6/4/8
f 8/8/9 14/4/9 16/8/9
f 7/5/10 37/8/10 36/5/10
f 17/2/11 23/5/11 21/2/11
f 15/5/12 17/2/12 13/2/12
f 14/4/13 17/2/13 18/4/13
f 16/8/14 18/4/14 20/8/14
f 22/4/15 52/8/15 24/8/15
f 18/4/16 21/2/16 22/4/16
f 18/4/17 24/8/17 20/8/17
f 20/8/18 23/5/18 19/5/18
f 26/8/19 27/9/19 30/10/19
f 29/4/20 31/2/20 32/4/20
f 6/4/21 32/4/21 14/4/21
f 1/2/8 26/4/8 2/4/8
f 13/2/22 32/4/22 31/2/22
f 5/2/23 31/2/23 28/2/23
f 9/3/24 26/2/24 30/3/24
f 34/5/15 43/1/15 42/5/15
f 38/7/15 41/8/15 46/7/15
f 8/8/25 40/8/25 37/8/25
f 3/5/10 34/8/10 33/5/10
f 15/5/26 40/8/26 16/8/26
f 10/7/27 33/8/27 38/7/27
f 7/5/28 39/5/28 15/5/28
f 42/4/15 46/11/15 41/2/15
f 45/8/29 47/5/29 44/5/29
f 36/5/30 47/5/30 39/5/30
f 36/5/31 45/8/31 44/5/31
f 33/5/31 42/8/31 41/5/31
f 37/8/32 48/8/32 45/8/32
f 39/5/33 48/8/33 40/8/33
f 50/4/15 56/8/15 52/8/15
f 24/8/19 51/5/19 23/5/19
f 23/5/34 49/2/34 21/2/34
f 21/2/35 50/4/35 22/4/35
f 53/2/36 56/8/36 54/4/36
f 56/8/37 58/8/37 52/8/37
f 51/5/34 53/2/34 49/2/34
f 49/2/35 54/4/35 50/4/35
f 60/8/38 62/8/38 58/8/38
f 55/5/39 60/8/39 56/8/39
f 51/5/40 59/5/40 55/5/40
f 52/8/41 57/5/41 51/5/41
f 62/8/19 63/5/19 61/5/19
f 58/8/42 61/5/42 57/5/42
f 59/5/43 61/5/43 63/5/43
f 60/8/44 63/5/44 64/8/44
f 66/2/1 11/1/1 9/3/1
f 66/4/45 67/5/45 68/8/45
f 85/4/3 12/6/3 65/4/3
f 70/4/45 71/5/45 72/8/45
f 92/5/4 11/1/4 68/5/4
f 65/4/5 10/7/5 67/8/5
f 75/5/46 80/8/46 76/8/46
f 73/2/47 71/5/47 69/2/47
f 88/4/48 69/2/48 70/4/48
f 72/8/49 74/4/49 70/4/49
f 71/5/50 94/8/50 72/8/50
f 77/2/51 83/5/51 79/5/51
f 77/2/52 75/5/52 73/2/52
f 74/4/53 77/2/53 73/2/53
f 76/8/54 78/4/54 74/4/54
f 102/8/15 82/4/15 84/8/15
f 78/4/55 81/2/55 77/2/55
f 84/8/56 78/4/56 80/8/56
f 83/5/57 80/8/57 79/5/57
f 27/9/19 86/8/19 30/10/19
f 90/4/58 87/2/58 88/4/58
f 90/4/59 70/4/59 74/4/59
f 86/4/48 65/2/48 66/4/48
f 73/2/60 90/4/60 74/4/60
f 69/2/61 89/2/61 73/2/61
f 9/3/24 86/2/24 66/2/24
f 92/5/62 43/1/62 35/1/62
f 38/7/63 41/8/63 91/8/63
f 72/8/64 96/8/64 76/8/64
f 67/5/50 92/8/50 68/8/50
f 96/8/65 75/5/65 76/8/65
f 10/7/27 91/8/27 67/8/27
f 95/5/66 71/5/66 75/5/66
f 97/5/67 45/8/67 44/5/67
f 97/5/68 93/5/68 95/5/68
f 93/5/69 45/8/69 94/8/69
f 91/5/69 42/8/69 92/8/69
f 94/8/70 98/8/70 96/8/70
f 98/8/71 95/5/71 96/8/71
f 106/8/15 100/4/15 102/8/15
f 101/5/19 84/8/19 83/5/19
f 99/2/34 83/5/34 81/2/34
f 100/4/35 81/2/35 82/4/35
f 106/8/72 103/2/72 104/4/72
f 102/8/37 110/8/37 106/8/37
f 103/2/34 101/5/34 99/2/34
f 104/4/35 99/2/35 100/4/35
f 112/8/38 110/8/38 108/8/38
f 110/8/41 105/5/41 106/8/41
f 105/5/40 107/5/40 101/5/40
f 107/5/39 102/8/39 101/5/39
f 113/5/19 112/8/19 111/5/19
f 111/5/73 108/8/73 107/5/73
f 109/5/43 111/5/43 107/5/43
f 110/8/74 113/5/74 109/5/74
f 11/1/1 4/5/1 2/2/1
f 2/4/2 4/8/2 3/5/2
f 12/6/3 27/6/3 25/4/3
f 6/4/2 8/8/2 7/5/2
f 11/1/4 35/1/4 34/5/4
f 1/4/5 3/8/5 10/7/5
f 15/5/6 16/8/6 20/8/6
f 7/5/75 15/5/75 13/2/75
f 5/2/8 28/2/8 29/4/8
f 8/8/76 6/4/76 14/4/76
f 7/5/10 8/8/10 37/8/10
f 17/2/11 19/5/11 23/5/11
f 15/5/77 19/5/77 17/2/77
f 14/4/13 13/2/13 17/2/13
f 16/8/78 14/4/78 18/4/78
f 22/4/15 50/4/15 52/8/15
f 18/4/16 17/2/16 21/2/16
f 18/4/17 22/4/17 24/8/17
f 20/8/18 24/8/18 23/5/18
f 26/8/19 25/5/19 27/9/19
f 29/4/20 28/2/20 31/2/20
f 6/4/21 29/4/21 32/4/21
f 1/2/8 25/2/8 26/4/8
f 13/2/22 14/4/22 32/4/22
f 5/2/23 13/2/23 31/2/23
f 9/3/24 2/2/24 26/2/24
f 34/5/62 35/1/62 43/1/62
f 38/7/63 33/8/63 41/8/63
f 8/8/25 16/8/25 40/8/25
f 3/5/10 4/8/10 34/8/10
f 15/5/26 39/5/26 40/8/26
f 10/7/27 3/8/27 33/8/27
f 7/5/28 36/5/28 39/5/28
f 42/4/15 43/12/15 46/11/15
f 45/8/29 48/8/29 47/5/29
f 36/5/79 44/5/79 47/5/79
f 36/5/31 37/8/31 45/8/31
f 33/5/31 34/8/31 42/8/31
f 37/8/80 40/8/80 48/8/80
f 39/5/33 47/5/33 48/8/33
f 50/4/15 54/4/15 56/8/15
f 24/8/19 52/8/19 51/5/19
f 23/5/34 51/5/34 49/2/34
f 21/2/35 49/2/35 50/4/35
f 53/2/36 55/5/36 56/8/36
f 56/8/37 60/8/37 58/8/37
f 51/5/34 55/5/34 53/2/34
f 49/2/35 53/2/35 54/4/35
f 60/8/38 64/8/38 62/8/38
f 55/5/39 59/5/39 60/8/39
f 51/5/40 57/5/40 59/5/40
f 52/8/41 58/8/41 57/5/41
f 62/8/19 64/8/19 63/5/19
f 58/8/81 62/8/81 61/5/81
f 59/5/43 57/5/43 61/5/43
f 60/8/44 59/5/44 63/5/44
f 66/2/1 68/5/1 11/1/1
f 66/4/45 65/2/45 67/5/45
f 85/4/3 27/6/3 12/6/3
f 70/4/45 69/2/45 71/5/45
f 92/5/4 35/1/4 11/1/4
f 65/4/5 12/6/5 10/7/5
f 75/5/46 79/5/46 80/8/46
f 73/2/82 75/5/82 71/5/82
f 88/4/48 87/2/48 69/2/48
f 72/8/83 76/8/83 74/4/83
f 71/5/50 93/5/50 94/8/50
f 77/2/51 81/2/51 83/5/51
f 77/2/84 79/5/84 75/5/84
f 74/4/53 78/4/53 77/2/53
f 76/8/85 80/8/85 78/4/85
f 102/8/15 100/4/15 82/4/15
f 78/4/55 82/4/55 81/2/55
f 84/8/56 82/4/56 78/4/56
f 83/5/57 84/8/57 80/8/57
f 27/9/19 85/5/19 86/8/19
f 90/4/58 89/2/58 87/2/58
f 90/4/59 88/4/59 70/4/59
f 86/4/48 85/2/48 65/2/48
f 73/2/60 89/2/60 90/4/60
f 69/2/61 87/2/61 89/2/61
f 9/3/24 30/3/24 86/2/24
f 92/5/15 42/5/15 43/1/15
f 72/8/64 94/8/64 96/8/64
f 67/5/50 91/5/50 92/8/50
f 96/8/65 95/5/65 75/5/65
f 10/7/27 38/7/27 91/8/27
f 95/5/66 93/5/66 71/5/66
f 97/5/67 98/8/67 45/8/67
f 97/5/86 44/5/86 93/5/86
f 93/5/69 44/5/69 45/8/69
f 91/5/69 41/5/69 42/8/69
f 94/8/87 45/8/87 98/8/87
f 98/8/71 97/5/71 95/5/71
f 106/8/15 104/4/15 100/4/15
f 101/5/19 102/8/19 84/8/19
f 99/2/34 101/5/34 83/5/34
f 100/4/35 99/2/35 81/2/35
f 106/8/72 105/5/72 103/2/72
f 102/8/37 108/8/37 110/8/37
f 103/2/34 105/5/34 101/5/34
f 104/4/35 103/2/35 99/2/35
f 112/8/38 114/8/38 110/8/38
f 110/8/41 109/5/41 105/5/41
f 105/5/40 109/5/40 107/5/40
f 107/5/39 108/8/39 102/8/39
f 113/5/19 114/8/19 112/8/19
f 111/5/73 112/8/73 108/8/73
f 109/5/43 113/5/43 111/5/43
f 110/8/74 114/8/74 113/5/74
